<svg width="200.99375px" height="57.8px" xmlns="http://www.w3.org/2000/svg" viewBox="149.503125 46.1 200.99375 57.8" style="background: rgba(0, 0, 0, 0);" preserveAspectRatio="xMidYMid"><defs><filter id="editing-hole" x="-100%" y="-100%" width="300%" height="300%"><feFlood flood-color="#000" result="black"></feFlood><feMorphology operator="dilate" radius="2" in="SourceGraphic" result="erode"></feMorphology><feGaussianBlur in="erode" stdDeviation="4" result="blur"></feGaussianBlur><feOffset in="blur" dx="2" dy="2" result="offset"></feOffset><feComposite operator="atop" in="offset" in2="black" result="merge"></feComposite><feComposite operator="in" in="merge" in2="SourceGraphic" result="inner-shadow"></feComposite></filter></defs><g filter="url(#editing-hole)"><g transform="translate(183.580007314682, 83.88000202178955)"><path d="M2.88 0L0.24 0L3.12-15.84L8.28-15.84L12.02-4.94L14.02-15.84L16.68-15.82L13.75 0L8.26 0L4.80-10.49L2.88 0ZM27-4.06L27-4.06L27-4.06Q27.60-3.65 27.60-2.75L27.60-2.75L27.60-2.75Q27.60-1.85 27.14-1.27L27.14-1.27L27.14-1.27Q26.69-0.70 25.94-0.31L25.94-0.31L25.94-0.31Q24.41 0.48 22.75 0.48L22.75 0.48L22.75 0.48Q21.10 0.48 20.12 0.12L20.12 0.12L20.12 0.12Q19.15-0.24 18.50-0.91L18.50-0.91L18.50-0.91Q17.23-2.18 17.23-4.51L17.23-4.51L17.23-4.51Q17.23-8.14 19.20-10.34L19.20-10.34L19.20-10.34Q21.31-12.72 24.98-12.72L24.98-12.72L24.98-12.72Q27.26-12.72 28.39-11.76L28.39-11.76L28.39-11.76Q29.23-11.04 29.23-9.86L29.23-9.86L29.23-9.86Q29.23-5.64 21.94-5.64L21.94-5.64L21.94-5.64Q21.84-5.02 21.84-4.49L21.84-4.49L21.84-4.49Q21.84-3.38 22.33-2.96L22.33-2.96L22.33-2.96Q22.82-2.54 23.74-2.54L23.74-2.54L23.74-2.54Q24.65-2.54 25.62-2.96L25.62-2.96L25.62-2.96Q26.59-3.38 27-4.06ZM22.10-6.67L22.10-6.67L22.10-6.67Q23.81-6.67 24.79-7.73L24.79-7.73L24.79-7.73Q25.78-8.74 25.78-10.34L25.78-10.34L25.78-10.34Q25.78-10.90 25.57-11.20L25.57-11.20L25.57-11.20Q25.37-11.50 24.96-11.50L24.96-11.50L24.96-11.50Q24.55-11.50 24.20-11.34L24.20-11.34L24.20-11.34Q23.86-11.18 23.50-10.66L23.50-10.66L23.50-10.66Q22.61-9.46 22.10-6.67ZM47.95-4.01L47.95-4.01Q46.37-1.82 44.84-0.67L44.84-0.67L44.84-0.67Q43.32 0.48 41.75 0.48L41.75 0.48L41.75 0.48Q40.18 0.48 39.62 0.17L39.62 0.17L39.62-5.11L39.62-5.11Q38.26-1.46 35.81-0.05L35.81-0.05L35.81-0.05Q34.92 0.48 34.08 0.48L34.08 0.48L34.08 0.48Q32.47 0.48 31.78 0.17L31.78 0.17L31.78 0.17Q31.61-5.33 31.46-6.85L31.46-6.85L31.46-6.85Q31.32-8.38 31.20-9.31L31.20-9.31L31.20-9.31Q30.96-11.18 30.14-11.95L30.14-11.95L30.14-11.95Q31.18-12.72 32.62-12.72L32.62-12.72L32.62-12.72Q35.40-12.72 35.78-9.26L35.78-9.26L35.78-9.26Q35.88-8.45 35.88-7.58L35.88-7.58L35.88-7.58Q35.88-6.29 35.59-1.78L35.59-1.78L35.59-1.78Q36.17-2.04 36.78-2.99L36.78-2.99L36.78-2.99Q37.39-3.94 37.90-5.23L37.90-5.23L37.90-5.23Q39.02-8.23 39.02-10.82L39.02-10.82L39.02-10.82Q39.02-11.23 38.92-11.66L38.92-11.66L38.92-11.66Q38.81-12.10 38.69-12.22L38.69-12.22L38.69-12.22Q39.53-12.72 40.81-12.72L40.81-12.72L40.81-12.72Q42.10-12.72 42.71-11.84L42.71-11.84L42.71-11.84Q43.32-10.97 43.49-9.36L43.49-9.36L43.49-9.36Q43.68-7.32 43.68-6.10L43.68-6.10L43.68-6.10Q43.68-4.39 43.51-1.87L43.51-1.87L43.51-1.87Q44.71-2.74 45.70-5.57L45.70-5.57L45.70-5.57Q46.68-8.40 46.68-10.42L46.68-10.42L46.68-10.42Q46.68-11.30 46.54-11.83L46.54-11.83L46.54-11.83Q47.33-12.72 48.70-12.72L48.70-12.72L48.70-12.72Q49.54-12.72 50.15-12.26L50.15-12.26L50.15-12.26Q50.76-11.81 50.76-10.96L50.76-10.96L50.76-10.96Q50.76-10.10 50.51-9.19L50.51-9.19L50.51-9.19Q50.26-8.28 49.85-7.34L49.85-7.34L49.85-7.34Q49.06-5.47 47.95-4.01L47.95-4.01ZM63.94-4.97L63.94-4.97L63.94-4.97Q64.56-4.51 64.56-3.54L64.56-3.54L64.56-3.54Q64.56-2.57 64.14-1.88L64.14-1.88L64.14-1.88Q63.72-1.20 62.90-0.67L62.90-0.67L62.90-0.67Q61.15 0.46 58.09 0.46L58.09 0.46L58.09 0.46Q55.03 0.46 53.36-1.14L53.36-1.14L53.36-1.14Q51.70-2.74 51.70-5.57L51.70-5.57L51.70-5.57Q51.70-9.58 53.78-12.62L53.78-12.62L53.78-12.62Q55.37-14.88 58.20-15.84L58.20-15.84L58.20-15.84Q59.66-16.32 61.10-16.32L61.10-16.32L61.10-16.32Q62.54-16.32 63.43-16.13L63.43-16.13L63.43-16.13Q64.32-15.94 64.99-15.55L64.99-15.55L64.99-15.55Q66.46-14.71 66.46-13.37L66.46-13.37L66.46-13.37Q66.46-12.14 65.30-11.23L65.30-11.23L65.30-11.23Q64.25-10.42 63.38-10.42L63.38-10.42L63.38-10.42Q62.52-10.42 62.16-10.54L62.16-10.54L62.16-10.54Q62.26-11.40 62.26-11.96L62.26-11.96L62.26-11.96Q62.26-12.53 62.23-12.94L62.23-12.94L62.23-12.94Q62.21-13.34 62.09-13.73L62.09-13.73L62.09-13.73Q61.85-14.62 61.12-14.62L61.12-14.62L61.12-14.62Q60.38-14.62 59.65-13.93L59.65-13.93L59.65-13.93Q58.92-13.25 58.30-12.10L58.30-12.10L58.30-12.10Q56.88-9.48 56.88-6.38L56.88-6.38L56.88-6.38Q56.88-4.90 57.72-4.04L57.72-4.04L57.72-4.04Q58.56-3.19 60.36-3.19L60.36-3.19L60.36-3.19Q61.70-3.19 62.98-4.08L62.98-4.08L62.98-4.08Q63.53-4.46 63.94-4.97ZM67.60-0.72L67.60-0.72L67.60-0.72Q67.03-1.34 66.78-2.33L66.78-2.33L66.78-2.33Q66.53-3.31 66.53-4.92L66.53-4.92L66.53-4.92Q66.53-6.53 67.08-7.99L67.08-7.99L67.08-7.99Q67.63-9.46 68.64-10.51L68.64-10.51L68.64-10.51Q70.70-12.72 74.11-12.72L74.11-12.72L74.11-12.72Q75.34-12.72 76.22-12.31L76.22-12.31L80.33-12.72L78.55-3.36L78.55-3.36Q78.48-3.07 78.48-2.54L78.48-2.54L78.48-2.54Q78.48-2.02 78.80-1.68L78.80-1.68L78.80-1.68Q79.13-1.34 79.61-1.30L79.61-1.30L79.61-1.30Q79.37-0.48 78.49 0L78.49 0L78.49 0Q77.62 0.48 76.63 0.48L76.63 0.48L76.63 0.48Q75.65 0.48 74.99 0.11L74.99 0.11L74.99 0.11Q74.33-0.26 74.14-0.89L74.14-0.89L74.14-0.89Q73.75-0.29 72.94 0.10L72.94 0.10L72.94 0.10Q72.12 0.48 71.03 0.48L71.03 0.48L71.03 0.48Q69.94 0.48 69.05 0.19L69.05 0.19L69.05 0.19Q68.16-0.10 67.60-0.72ZM72.66-10.46L72.66-10.46L72.66-10.46Q72.38-10.03 72.14-9.30L72.14-9.30L72.14-9.30Q71.90-8.57 71.51-6.61L71.51-6.61L71.51-6.61Q71.11-4.66 71.11-3.26L71.11-3.26L71.11-3.26Q71.11-1.87 71.33-1.46L71.33-1.46L71.33-1.46Q71.54-1.06 71.93-1.06L71.93-1.06L71.93-1.06Q72.70-1.06 73.26-1.79L73.26-1.79L73.26-1.79Q73.82-2.52 74.04-3.82L74.04-3.82L75.31-10.85L75.31-10.85Q74.81-11.28 74.22-11.28L74.22-11.28L74.22-11.28Q73.63-11.28 73.28-11.09L73.28-11.09L73.28-11.09Q72.94-10.90 72.66-10.46ZM93.31-9.98L93.31-9.98L93.31-9.98Q93.31-8.98 92.47-8.35L92.47-8.35L92.47-8.35Q91.63-7.73 90.26-7.73L90.26-7.73L90.26-7.73Q89.69-7.73 89.35-7.90L89.35-7.90L89.35-7.90Q89.62-8.52 89.70-9.30L89.70-9.30L89.70-9.30Q89.78-10.08 89.78-10.30L89.78-10.30L89.78-10.30Q89.78-11.30 89.09-11.30L89.09-11.30L89.09-11.30Q88.61-11.30 88.07-10.70L88.07-10.70L88.07-10.70Q87.53-10.10 87.07-9.17L87.07-9.17L87.07-9.17Q86.06-7.01 86.06-4.82L86.06-4.82L86.06-4.82Q86.06-3.62 86.52-3.08L86.52-3.08L86.52-3.08Q86.98-2.54 87.98-2.54L87.98-2.54L87.98-2.54Q89.38-2.54 90.48-3.70L90.48-3.70L90.48-3.70Q90.79-4.06 90.96-4.46L90.96-4.46L90.96-4.46Q91.87-3.98 91.87-2.66L91.87-2.66L91.87-2.66Q91.87-1.32 90.38-0.43L90.38-0.43L90.38-0.43Q88.85 0.48 86.40 0.48L86.40 0.48L86.40 0.48Q81.53 0.48 81.53-4.68L81.53-4.68L81.53-4.68Q81.53-8.45 83.66-10.61L83.66-10.61L83.66-10.61Q85.73-12.72 89.52-12.72L89.52-12.72L89.52-12.72Q93.31-12.72 93.31-9.98ZM106.03-2.66L106.03-2.66L106.03-2.66Q106.03-1.61 107.11-1.30L107.11-1.30L107.11-1.30Q106.85-0.41 105.82 0.07L105.82 0.07L105.82 0.07Q104.95 0.48 104.00 0.48L104.00 0.48L104.00 0.48Q103.06 0.48 102.56 0.23L102.56 0.23L102.56 0.23Q102.07-0.02 101.81-0.43L101.81-0.43L101.81-0.43Q101.38-1.06 101.38-2.23L101.38-2.23L101.38-2.23Q101.38-2.93 101.76-4.85L101.76-4.85L102.10-6.67L102.10-6.67Q102.50-8.76 102.50-9.53L102.50-9.53L102.50-9.53Q102.50-10.87 101.76-10.87L101.76-10.87L101.76-10.87Q100.82-10.87 100.22-9.50L100.22-9.50L100.22-9.50Q99.98-8.98 99.82-8.18L99.82-8.18L98.18 0L93.36 0.48L96.74-16.80L101.57-17.28L101.38-16.32L101.38-16.32Q100.70-12.62 100.13-11.38L100.13-11.38L100.13-11.38Q101.47-12.72 103.94-12.72L103.94-12.72L103.94-12.72Q106.56-12.72 107.04-10.99L107.04-10.99L107.04-10.99Q107.21-10.44 107.21-9.96L107.21-9.96L107.21-9.96Q107.21-9.48 107.17-9.11L107.17-9.11L107.17-9.11Q107.14-8.74 107.02-8.06L107.02-8.06L106.70-6.34L106.15-3.62L106.15-3.62Q106.03-3.07 106.03-2.66ZM118.78-4.06L118.78-4.06L118.78-4.06Q119.38-3.65 119.38-2.75L119.38-2.75L119.38-2.75Q119.38-1.85 118.92-1.27L118.92-1.27L118.92-1.27Q118.46-0.70 117.72-0.31L117.72-0.31L117.72-0.31Q116.18 0.48 114.53 0.48L114.53 0.48L114.53 0.48Q112.87 0.48 111.90 0.12L111.90 0.12L111.90 0.12Q110.93-0.24 110.28-0.91L110.28-0.91L110.28-0.91Q109.01-2.18 109.01-4.51L109.01-4.51L109.01-4.51Q109.01-8.14 110.98-10.34L110.98-10.34L110.98-10.34Q113.09-12.72 116.76-12.72L116.76-12.72L116.76-12.72Q119.04-12.72 120.17-11.76L120.17-11.76L120.17-11.76Q121.01-11.04 121.01-9.86L121.01-9.86L121.01-9.86Q121.01-5.64 113.71-5.64L113.71-5.64L113.71-5.64Q113.62-5.02 113.62-4.49L113.62-4.49L113.62-4.49Q113.62-3.38 114.11-2.96L114.11-2.96L114.11-2.96Q114.60-2.54 115.51-2.54L115.51-2.54L115.51-2.54Q116.42-2.54 117.40-2.96L117.40-2.96L117.40-2.96Q118.37-3.38 118.78-4.06ZM113.88-6.67L113.88-6.67L113.88-6.67Q115.58-6.67 116.57-7.73L116.57-7.73L116.57-7.73Q117.55-8.74 117.55-10.34L117.55-10.34L117.55-10.34Q117.55-10.90 117.35-11.20L117.35-11.20L117.35-11.20Q117.14-11.50 116.74-11.50L116.74-11.50L116.74-11.50Q116.33-11.50 115.98-11.34L115.98-11.34L115.98-11.34Q115.63-11.18 115.27-10.66L115.27-10.66L115.27-10.66Q114.38-9.46 113.88-6.67ZM129-8.42L129-8.42L129-8.42Q129.34-9.31 129.34-10.08L129.34-10.08L129.34-10.08Q129.34-11.50 128.18-11.50L128.18-11.50L128.18-11.50Q127.58-11.50 127.09-10.96L127.09-10.96L127.09-10.96Q126.60-10.42 126.60-9.74L126.60-9.74L126.60-9.74Q126.60-9.26 126.98-8.88L126.98-8.88L126.98-8.88Q127.54-8.35 128.95-7.49L128.95-7.49L128.95-7.49Q130.37-6.62 130.91-5.92L130.91-5.92L130.91-5.92Q131.45-5.21 131.45-4.24L131.45-4.24L131.45-4.24Q131.45-3.26 130.98-2.38L130.98-2.38L130.98-2.38Q130.51-1.49 129.67-0.86L129.67-0.86L129.67-0.86Q127.87 0.48 124.99 0.48L124.99 0.48L124.99 0.48Q123.43 0.48 122.23-0.34L122.23-0.34L122.23-0.34Q121.03-1.13 121.03-2.06L121.03-2.06L121.03-2.06Q121.03-3 121.72-3.55L121.72-3.55L121.72-3.55Q122.40-4.10 123.41-4.10L123.41-4.10L123.41-4.10Q124.42-4.10 125.04-3.72L125.04-3.72L125.04-3.72Q124.73-2.93 124.73-2.40L124.73-2.40L124.73-2.40Q124.73-0.82 126.07-0.82L126.07-0.82L126.07-0.82Q126.65-0.82 127.03-1.18L127.03-1.18L127.03-1.18Q127.42-1.54 127.42-2.16L127.42-2.16L127.42-2.16Q127.42-3.38 125.35-4.68L125.35-4.68L125.35-4.68Q123.67-5.78 123.29-6.22L123.29-6.22L123.29-6.22Q122.64-6.98 122.64-7.94L122.64-7.94L122.64-7.94Q122.64-8.90 123.10-9.82L123.10-9.82L123.10-9.82Q123.55-10.73 124.39-11.38L124.39-11.38L124.39-11.38Q126.14-12.72 129.19-12.72L129.19-12.72L129.19-12.72Q130.75-12.72 131.68-12.10L131.68-12.10L131.68-12.10Q132.60-11.47 132.60-10.42L132.60-10.42L132.60-10.42Q132.60-9.36 131.96-8.76L131.96-8.76L131.96-8.76Q131.33-8.16 130.18-8.16L130.18-8.16L130.18-8.16Q129.38-8.16 129-8.42Z" fill="#ccc"></path></g></g><style>text {
  font-size: 64px;
  font-family: Arial Black;
  dominant-baseline: central;
  text-anchor: middle;
}</style></svg>